{
	"asset":{
		"generator":"Khronos glTF Blender I/O v4.0.44",
		"version":"2.0"
	},
	"scene":0,
	"scenes":[
		{
			"name":"Scene",
			"nodes":[
				0,
				1,
				2,
				3
			]
		}
	],
	"nodes":[
		{
			"mesh":0,
			"name":"trunk",
			"scale":[
				0.8487779498100281,
				0.8487779498100281,
				0.8487779498100281
			]
		},
		{
			"mesh":1,
			"name":"b_leaves",
			"scale":[
				1.9599231481552124,
				1.9599231481552124,
				1.9599231481552124
			],
			"translation":[
				0,
				2.5,
				0
			]
		},
		{
			"mesh":2,
			"name":"m_leaves",
			"scale":[
				1.5654221773147583,
				1.5654221773147583,
				1.5654221773147583
			],
			"translation":[
				0,
				3.5,
				0
			]
		},
		{
			"mesh":3,
			"name":"t_leaves",
			"scale":[
				1.258725643157959,
				1.258725643157959,
				1.258725643157959
			],
			"translation":[
				0,
				4.5,
				0
			]
		}
	],
	"materials":[
		{
			"doubleSided":true,
			"name":"Colors.001",
			"pbrMetallicRoughness":{
				"baseColorTexture":{
					"index":0
				},
				"metallicFactor":0,
				"roughnessFactor":0.5
			}
		}
	],
	"meshes":[
		{
			"name":"Cylinder",
			"primitives":[
				{
					"attributes":{
						"POSITION":0,
						"NORMAL":1,
						"TEXCOORD_0":2
					},
					"indices":3,
					"material":0
				}
			]
		},
		{
			"name":"Cone",
			"primitives":[
				{
					"attributes":{
						"POSITION":4,
						"NORMAL":5,
						"TEXCOORD_0":6
					},
					"indices":7,
					"material":0
				}
			]
		},
		{
			"name":"Cone.001",
			"primitives":[
				{
					"attributes":{
						"POSITION":8,
						"NORMAL":9,
						"TEXCOORD_0":10
					},
					"indices":7,
					"material":0
				}
			]
		},
		{
			"name":"Cone.002",
			"primitives":[
				{
					"attributes":{
						"POSITION":11,
						"NORMAL":12,
						"TEXCOORD_0":13
					},
					"indices":7,
					"material":0
				}
			]
		}
	],
	"textures":[
		{
			"sampler":0,
			"source":0
		}
	],
	"images":[
		{
			"mimeType":"image/png",
			"name":"colour_palette.png",
			"uri":"../../../../Downloads/colour_palette.png"
		}
	],
	"accessors":[
		{
			"bufferView":0,
			"componentType":5126,
			"count":64,
			"max":[
				1,
				4.3295488357543945,
				1
			],
			"min":[
				-1,
				0,
				-1
			],
			"type":"VEC3"
		},
		{
			"bufferView":1,
			"componentType":5126,
			"count":64,
			"type":"VEC3"
		},
		{
			"bufferView":2,
			"componentType":5126,
			"count":64,
			"type":"VEC2"
		},
		{
			"bufferView":3,
			"componentType":5123,
			"count":108,
			"type":"SCALAR"
		},
		{
			"bufferView":4,
			"componentType":5126,
			"count":32,
			"max":[
				1,
				1.5102241039276123,
				1
			],
			"min":[
				-1,
				-0.48977595567703247,
				-1
			],
			"type":"VEC3"
		},
		{
			"bufferView":5,
			"componentType":5126,
			"count":32,
			"type":"VEC3"
		},
		{
			"bufferView":6,
			"componentType":5126,
			"count":32,
			"type":"VEC2"
		},
		{
			"bufferView":7,
			"componentType":5123,
			"count":42,
			"type":"SCALAR"
		},
		{
			"bufferView":8,
			"componentType":5126,
			"count":32,
			"max":[
				1,
				1.6388052701950073,
				1
			],
			"min":[
				-1,
				-0.3611947298049927,
				-1
			],
			"type":"VEC3"
		},
		{
			"bufferView":9,
			"componentType":5126,
			"count":32,
			"type":"VEC3"
		},
		{
			"bufferView":10,
			"componentType":5126,
			"count":32,
			"type":"VEC2"
		},
		{
			"bufferView":11,
			"componentType":5126,
			"count":32,
			"max":[
				1,
				1.7944543361663818,
				1
			],
			"min":[
				-1,
				-0.20554566383361816,
				-1
			],
			"type":"VEC3"
		},
		{
			"bufferView":12,
			"componentType":5126,
			"count":32,
			"type":"VEC3"
		},
		{
			"bufferView":13,
			"componentType":5126,
			"count":32,
			"type":"VEC2"
		}
	],
	"bufferViews":[
		{
			"buffer":0,
			"byteLength":768,
			"byteOffset":0,
			"target":34962
		},
		{
			"buffer":0,
			"byteLength":768,
			"byteOffset":768,
			"target":34962
		},
		{
			"buffer":0,
			"byteLength":512,
			"byteOffset":1536,
			"target":34962
		},
		{
			"buffer":0,
			"byteLength":216,
			"byteOffset":2048,
			"target":34963
		},
		{
			"buffer":0,
			"byteLength":384,
			"byteOffset":2264,
			"target":34962
		},
		{
			"buffer":0,
			"byteLength":384,
			"byteOffset":2648,
			"target":34962
		},
		{
			"buffer":0,
			"byteLength":256,
			"byteOffset":3032,
			"target":34962
		},
		{
			"buffer":0,
			"byteLength":84,
			"byteOffset":3288,
			"target":34963
		},
		{
			"buffer":0,
			"byteLength":384,
			"byteOffset":3372,
			"target":34962
		},
		{
			"buffer":0,
			"byteLength":384,
			"byteOffset":3756,
			"target":34962
		},
		{
			"buffer":0,
			"byteLength":256,
			"byteOffset":4140,
			"target":34962
		},
		{
			"buffer":0,
			"byteLength":384,
			"byteOffset":4396,
			"target":34962
		},
		{
			"buffer":0,
			"byteLength":384,
			"byteOffset":4780,
			"target":34962
		},
		{
			"buffer":0,
			"byteLength":256,
			"byteOffset":5164,
			"target":34962
		}
	],
	"samplers":[
		{
			"magFilter":9729,
			"minFilter":9987
		}
	],
	"buffers":[
		{
			"byteLength":5420,
			"uri":"scenery1-508e87af10163f23221df6370295d47e.bin"
		}
	]
}
